<?xml version="1.0" encoding="utf-8"?>
<svg viewBox="0 0 31 34" width="31" height="34" xmlns="http://www.w3.org/2000/svg">
	<style type="text/css">
		.st0{fill:#BC473A;}
		.st1{fill:#E84D3D;}
		.st2{fill:#FDC72E;}
		.st3{fill:#E09B00;}
	</style>
	<path class="st0" d="m18.6 22.5v-11.2l-3.2-11-3.1 11v11.2l3.1 11.2 3.2-11.2z"/>
	<path class="st1" d="m15.3 0.3l-15.3 5.6 2.2 20.4 13.2 7.3"/>
	<path class="st0" d="m15.3 33.7l13.3-7.3 2.4-20.5-15.7-5.6"/>
	<path class="st2" d="m15.3 6.8c-0.5 0-1.1 0.1-1.6 0.2 0.1 1.1 0.4 2.2 0.9 3.2h0.3c0.2 0 0.3 0 0.5 0.1-0.1-0.1-0.1-3.5-0.1-3.5zm-2.6 0.4c-3.9 1.2-6.5 4.8-6.5 8.9v0.7c1 1.5 2.3 2.3 3.6 2.8 0.2-0.4 0.5-0.6 0.9-0.8v-0.2c0.3-2.1 1.3-4.2 2.6-6-0.2-0.3-0.3-0.6-0.3-0.9 0-0.4 0.2-0.8 0.5-1.1-0.4-1-0.7-2.2-0.8-3.4zm2.2 3.7c-0.5 0-0.9 0.4-0.9 0.9s0.4 0.9 0.9 0.9c0.2 0 0.3-0.1 0.5-0.2v-1.5c-0.2 0-0.4-0.1-0.5-0.1zm-0.7 2.5c-1.2 1.7-2.1 3.6-2.4 5.5v0.1c0.5 0.2 0.8 0.6 0.9 1.1 0.9 0 1.8-0.2 2.6-0.5v-5.9l-0.2-0.2c-0.2 0-0.6 0-0.9-0.1zm-7.6 5.5c0.9 2.9 3.1 5.2 6 6.1-0.9-0.8-1.5-1.9-1.7-3.1-0.6-0.1-1.1-0.6-1.2-1.2-1.2-0.3-2.2-0.9-3.1-1.8zm4.6 0.7c-0.5 0-0.8 0.4-0.8 0.8 0 0.5 0.4 0.8 0.8 0.8 0.5 0 0.8-0.4 0.8-0.8s-0.3-0.8-0.8-0.8zm4.1 1.1c-0.9 0.2-1.8 0.4-2.7 0.4-0.2 0.3-0.4 0.5-0.7 0.7 0.3 1.1 0.9 2.1 1.8 2.8 0.2 0.2 0.7 0.5 1.2 0.7 0.1 0.1 0.2 0.1 0.4 0.2h0.1v-4.8h-0.1z"/>
	<path class="st3" d="m15.4 6.8l-0.1 3.4c0.1 0 0.1 0 0.2 0.1 1.3-1.2 2.5-2.1 3.6-2.7-1.1-0.6-2.4-0.8-3.7-0.8zm4.9 1.4c-1 0.5-2.5 1.4-4 2.8 0.1 0.2 0.2 0.5 0.2 0.8 0 0.4-0.2 0.8-0.4 1.1 0.4 0.5 0.8 1.1 1.3 1.6 0.6 0.6 1.2 1.1 1.8 1.6 0.3-0.2 0.7-0.4 1.1-0.4 0.3 0 0.6 0.1 0.9 0.3 1.2-1.2 2.1-2.5 2.6-3.8-0.7-1.7-2-3.1-3.5-4zm-5 2.9v1.5c0.3-0.2 0.4-0.4 0.4-0.7 0-0.4-0.1-0.7-0.4-0.8zm9 2.5c-0.6 1.1-1.4 2.2-2.4 3.2 0.1 0.3 0.2 0.7 0.1 1 0.8 0.4 1.5 0.7 2.3 0.9 0.2-0.8 0.4-1.7 0.4-2.6 0-0.8-0.1-1.6-0.4-2.5zm-9 0.1v5.9c0.1 0 0.2-0.1 0.4-0.1 1-0.3 2-0.9 2.9-1.4-0.1-0.2-0.1-0.3-0.1-0.5s0-0.3 0.1-0.5c-0.7-0.5-1.4-1.1-2-1.8-0.4-0.6-0.9-1.1-1.3-1.6zm5 2.9c-0.5 0-0.9 0.4-0.9 0.9s0.4 0.9 0.9 0.9 0.9-0.4 0.9-0.9-0.4-0.9-0.9-0.9zm1.2 2.2c-0.3 0.3-0.7 0.5-1.2 0.5-0.4 0-0.7-0.1-1-0.3-1 0.6-2.1 1.2-3.3 1.6-0.2 0.1-0.5 0.1-0.7 0.2v4.8h0.1c3.7 0 7.1-2.3 8.5-5.8-0.8-0.3-1.6-0.6-2.4-1z"/>
</svg>
