<?xml version="1.0" encoding="utf-8"?>
<svg viewBox="0 0 102 80" width="102" height="80" xmlns="http://www.w3.org/2000/svg">
	<style type="text/css">
		.st0{fill:#BD483B;}
		.st1{fill:#1E3B45;}
		.st2{fill:#E64E3D;}
		.st3{fill:#FEC82F;}
		.st4{fill:#DF9C26;}
	</style>
	<g>
		<polygon class="st0" points="50.728,0 45.949,16.436 45.949,16.594 45.949,33.03 50.728,49.624 50.728,49.624 55.642,33.03 55.642,16.594 55.642,16.436 50.728,0"/>
		<g>
			<g>
				<path class="st1" d="M5.608,74.003c0,3.998-1.387,5.997-4.16,5.997c-0.431,0-0.851-0.059-1.259-0.174v-1.11 c0.454,0.154,0.881,0.232,1.282,0.232c1.063,0,1.829-0.404,2.299-1.207c0.47-0.805,0.705-2.059,0.705-3.762V63.141h1.132V74.003z "/>
				<path class="st1" d="M9.051,79.122v-1.307c1.186,0.755,2.388,1.133,3.605,1.133c1.294,0,2.276-0.267,2.947-0.803 c0.67-0.536,1.005-1.285,1.005-2.247c0-0.848-0.225-1.525-0.677-2.028c-0.45-0.505-1.427-1.191-2.929-2.063 c-1.679-0.977-2.742-1.796-3.188-2.455c-0.447-0.659-0.67-1.42-0.67-2.282c0-1.17,0.454-2.165,1.363-2.982 c0.909-0.815,2.122-1.225,3.64-1.225c0.986,0,1.972,0.166,2.957,0.497v1.201c-0.97-0.439-2.007-0.659-3.108-0.659 c-1.125,0-2.016,0.287-2.676,0.856c-0.658,0.569-0.988,1.295-0.988,2.173c0,0.846,0.225,1.521,0.676,2.022 c0.452,0.499,1.424,1.182,2.917,2.044c1.548,0.879,2.579,1.66,3.091,2.34c0.513,0.683,0.768,1.467,0.768,2.352 c0,1.271-0.441,2.307-1.322,3.109C15.581,79.6,14.335,80,12.725,80c-0.57,0-1.227-0.09-1.97-0.265 C10.011,79.557,9.444,79.353,9.051,79.122z"/>
				<path class="st1" d="M21.067,79.711V63.141h5.87c5.885,0,8.827,2.693,8.827,8.078c0,2.58-0.803,4.641-2.409,6.182 c-1.606,1.541-3.745,2.311-6.418,2.311H21.067z M24.799,66.181v10.502h1.849c1.618,0,2.886-0.484,3.807-1.455 c0.921-0.971,1.381-2.291,1.381-3.963c0-1.58-0.456-2.822-1.369-3.727c-0.913-0.905-2.194-1.357-3.842-1.357H24.799z"/>
				<path class="st1" d="M48.751,79.711h-9.937V63.141h9.556v3.04h-5.823v3.686h5.418v3.027h-5.418v3.789h6.204V79.711z"/>
				<path class="st1" d="M61.779,79.711h-9.868V63.141h3.733v13.542h6.135V79.711z"/>
				<path class="st1" d="M67.864,63.141v16.571h-3.733V63.141H67.864z"/>
				<path class="st1" d="M85.675,63.141l-5.708,16.571h-4.229l-5.639-16.571h4.021l3.455,11.531c0.185,0.624,0.296,1.176,0.335,1.654 h0.069c0.054-0.517,0.174-1.082,0.358-1.699l3.432-11.487H85.675z"/>
				<path class="st1" d="M101.811,79.711h-4.287l-2.576-4.265c-0.193-0.322-0.378-0.612-0.555-0.866 c-0.177-0.254-0.357-0.472-0.537-0.653c-0.181-0.179-0.37-0.32-0.567-0.415c-0.196-0.096-0.409-0.144-0.641-0.144h-1.005v6.344 h-3.733V63.141h5.916c4.021,0,6.032,1.504,6.032,4.507c0,0.577-0.089,1.112-0.266,1.601c-0.177,0.489-0.427,0.93-0.751,1.322 c-0.324,0.394-0.715,0.731-1.173,1.018c-0.458,0.285-0.968,0.507-1.531,0.669v0.047c0.247,0.076,0.486,0.203,0.717,0.374 c0.231,0.174,0.454,0.376,0.67,0.608c0.215,0.23,0.422,0.478,0.618,0.745c0.197,0.265,0.375,0.525,0.537,0.78L101.811,79.711z  M91.644,65.937v4.61h1.618c0.801,0,1.444-0.23,1.929-0.692c0.493-0.47,0.74-1.051,0.74-1.745c0-1.447-0.867-2.173-2.6-2.173 H91.644z"/>
			</g>
		</g>
		<g>
			<g>
				<polyline class="st2" points="50.728,0 27.816,8.253 31.071,38.768 50.728,49.624"/>
				<polyline class="st0" points="50.728,49.624 70.487,38.656 74.184,8.144 50.728,0"/>
			</g>
			<g>
				<path class="st3" d="M46.571,36.856c-2.256-0.704-4.266-1.962-5.868-3.62c0,0-0.004,0-0.004-0.004 c-0.194-0.201-0.384-0.408-0.568-0.62c-1.247-1.457-2.2-3.173-2.765-5.057c0.375,0.345,0.771,0.665,1.186,0.961l0,0 c0.004,0.01,0.012,0.025,0.016,0.039c-0.004-0.014-0.012-0.029-0.016-0.039c0.592,0.415,1.223,0.782,1.89,1.096 c0.209,0.096,0.421,0.189,0.637,0.277c0.262,0.105,0.535,0.203,0.807,0.293c0.016,0.006,0.034,0.01,0.052,0.016 c0.048,0.018,0.096,0.031,0.144,0.047c0.112,1.127,0.967,2.044,2.07,2.241C44.579,34.21,45.392,35.68,46.571,36.856z"/>
				<path class="st3" d="M47.434,17.062c0,0.48,0.132,0.93,0.364,1.312c-1.863,2.609-3.14,5.443-3.693,8.249 c-0.062,0.312-0.115,0.62-0.156,0.922c-0.638,0.17-1.177,0.583-1.513,1.135c-0.018-0.002-0.036-0.008-0.052-0.014 c-0.032-0.012-0.06-0.021-0.09-0.033c-0.21-0.068-0.418-0.146-0.621-0.228c-0.304-0.121-0.6-0.257-0.89-0.404 c-0.987-0.503-1.877-1.149-2.653-1.925c-0.163-0.162-0.316-0.326-0.463-0.493l-0.062-0.072c-0.058-0.068-0.117-0.136-0.172-0.205 c-0.024-0.031-0.048-0.059-0.071-0.088c-0.019-0.025-0.036-0.045-0.054-0.066c-0.008-0.014-0.018-0.023-0.026-0.035 c-0.028-0.031-0.055-0.068-0.078-0.103c-0.012-0.014-0.024-0.029-0.034-0.043c-0.001-0.004-0.004-0.004-0.005-0.012 c-0.02-0.019-0.037-0.047-0.056-0.07c-0.08-0.109-0.158-0.222-0.234-0.335c-0.012-0.018-0.026-0.035-0.038-0.057 c-0.008-0.012-0.02-0.027-0.028-0.041c-0.02-0.304-0.03-0.61-0.03-0.919c0-2.806,0.829-5.418,2.252-7.606 c0.17-0.261,0.35-0.517,0.538-0.764c0.178-0.24,0.364-0.474,0.557-0.696c1.677-1.96,3.888-3.448,6.404-4.24 c0.038,0.273,0.086,0.548,0.14,0.825c0.287,1.439,0.763,2.89,1.411,4.314C47.678,15.82,47.434,16.413,47.434,17.062z"/>
				<path class="st3" d="M45.949,29.994c0,0.326-0.118,0.628-0.314,0.864c-0.044,0.055-0.093,0.101-0.144,0.148 c-0.238,0.207-0.548,0.333-0.887,0.333c-0.258,0-0.498-0.072-0.703-0.199c-0.218-0.135-0.394-0.328-0.509-0.56 c-0.085-0.179-0.134-0.376-0.134-0.587c0-0.388,0.166-0.737,0.429-0.983c0.042-0.039,0.088-0.076,0.134-0.109 c0.22-0.162,0.493-0.252,0.783-0.252c0.306,0,0.589,0.097,0.813,0.273c0.126,0.096,0.232,0.211,0.316,0.341 C45.871,29.473,45.949,29.727,45.949,29.994z"/>
				<path class="st3" d="M51.312,17.062c0,0.216-0.05,0.417-0.14,0.597c-0.22,0.447-0.679,0.749-1.203,0.749 c-0.066,0-0.13-0.002-0.19-0.01c-0.013-0.006-0.024-0.008-0.036-0.01c-0.571-0.096-1.019-0.55-1.105-1.125 c-0.01-0.064-0.014-0.133-0.014-0.201c0-0.154,0.024-0.304,0.074-0.441c0.185-0.527,0.685-0.901,1.271-0.901h0.004 c0.016,0,0.034,0,0.053,0c0.585,0.023,1.073,0.421,1.233,0.958C51.292,16.801,51.312,16.929,51.312,17.062z"/>
				<path class="st4" d="M64.675,23.539c0,1.35-0.192,2.652-0.548,3.887c-1.19-0.316-2.391-0.776-3.575-1.365 c0.034-0.162,0.049-0.328,0.049-0.499c0-0.333-0.063-0.657-0.185-0.95c0.048-0.047,0.096-0.092,0.141-0.14 c1.425-1.455,2.625-3.062,3.58-4.784C64.486,20.912,64.675,22.203,64.675,23.539z"/>
				<path class="st4" d="M63.38,17.659c-0.096,0.207-0.196,0.413-0.3,0.62c-0.934,1.837-2.166,3.547-3.661,5.074 c-0.015,0.014-0.029,0.031-0.042,0.041c-0.382-0.232-0.831-0.365-1.31-0.365c-0.559,0-1.074,0.183-1.496,0.489 c-0.766-0.605-1.507-1.262-2.218-1.976c-0.905-0.901-1.723-1.857-2.454-2.843c0.376-0.441,0.606-1.014,0.606-1.638 c0-0.47-0.131-0.911-0.354-1.285c1.801-1.732,3.792-3.136,5.833-4.154C60.326,13.053,62.214,15.153,63.38,17.659z"/>
				<path class="st4" d="M59.412,25.561c0,0.564-0.342,1.043-0.829,1.246c-0.161,0.066-0.334,0.105-0.517,0.105 c-0.094,0-0.187-0.014-0.276-0.031c-0.573-0.121-1.014-0.606-1.064-1.199c0.015-0.012,0.028-0.019,0.042-0.031 c-0.016-0.01-0.031-0.02-0.045-0.033c-0.002-0.017-0.002-0.033-0.002-0.057c0-0.579,0.371-1.078,0.894-1.264 c0.14-0.051,0.292-0.078,0.45-0.078c0.134,0,0.266,0.019,0.389,0.057c0.516,0.156,0.903,0.614,0.952,1.168 C59.412,25.483,59.412,25.522,59.412,25.561z"/>
				<path class="st4" d="M59.763,27.443c-0.45,0.409-1.044,0.655-1.697,0.655c-0.523,0-1.008-0.16-1.413-0.431 c-0.059,0.039-0.117,0.074-0.173,0.109c-1.836,1.162-3.778,2.013-5.753,2.527v7.184c5.789,0,10.756-3.53,12.867-8.555 C62.314,28.582,61.028,28.082,59.763,27.443z"/>
				<path class="st3" d="M50.728,30.304c-1.182,0.304-2.369,0.491-3.552,0.548c-0.062,0.004-0.126,0.01-0.19,0.012 c-0.225,0.608-0.675,1.11-1.25,1.396c0.365,1.355,1.025,2.529,1.964,3.467c0.781,0.782,1.73,1.371,2.817,1.759 c0.068,0,0.138,0.002,0.211,0.002V30.304z"/>
				<path class="st4" d="M55.532,25.561c0-0.256,0.04-0.505,0.11-0.741c-0.838-0.655-1.647-1.371-2.42-2.147 c-0.914-0.915-1.746-1.882-2.495-2.88v8.854c1.675-0.482,3.328-1.225,4.901-2.217c0.014-0.01,0.029-0.019,0.046-0.033 C55.583,26.136,55.532,25.853,55.532,25.561z"/>
				<path class="st3" d="M50.728,19.792c-0.067-0.088-0.134-0.172-0.197-0.259c-0.182,0.043-0.37,0.064-0.562,0.064 c-0.336,0-0.657-0.066-0.949-0.185c-1.69,2.395-2.847,4.977-3.349,7.518c-0.048,0.242-0.089,0.478-0.124,0.712 c0.708,0.287,1.261,0.883,1.484,1.623c0.024-0.004,0.044-0.004,0.068-0.004c1.205-0.061,2.422-0.269,3.63-0.614V19.792z"/>
				<path class="st4" d="M50.728,9.591v5.055c0.072,0.023,0.146,0.049,0.216,0.08c1.646-1.597,3.45-2.947,5.32-3.992 C54.567,9.997,52.693,9.591,50.728,9.591z"/>
				<path class="st3" d="M50.728,9.591c-0.905,0-1.788,0.082-2.641,0.25c0.038,0.294,0.09,0.601,0.15,0.905 c0.251,1.279,0.669,2.566,1.235,3.832c0.16-0.031,0.326-0.049,0.496-0.049c0.264,0,0.517,0.041,0.759,0.117V9.591z"/>
			</g>
		</g>
	</g>
</svg>
